<?xml version="1.0" encoding="UTF-8"?>
<svg width="15px" height="22px" viewBox="0 0 15 22" version="1.1" xmlns="http://www.w3.org/2000/svg" xmlns:xlink="http://www.w3.org/1999/xlink">
    <!-- Generator: Sketch 46.2 (44496) - http://www.bohemiancoding.com/sketch -->
    <title>facebook-logo</title>
    <desc>Created with Sketch.</desc>
    <defs></defs>
    <g id="Page-1" stroke="none" stroke-width="1" fill="none" fill-rule="evenodd">
        <g id="HOME-DESKTOP" transform="translate(-1362.000000, -18.000000)" fill-rule="nonzero" fill="#B1B1B1">
            <g id="Group-4">
                <g id="facebook-logo" transform="translate(1362.000000, 18.000000)">
                    <path d="M14.435144,0.00457746845 L10.8373261,0 C6.79530104,0 4.18316689,2.12508973 4.18316689,5.41422968 L4.18316689,7.91055211 L0.565721873,7.91055211 C0.253131675,7.91055211 0,8.11150297 0,8.35937289 L0,11.9762596 C0,12.2241295 0.253420308,12.4248515 0.565721873,12.4248515 L4.18316689,12.4248515 L4.18316689,21.5514081 C4.18316689,21.799278 4.43629856,22 4.74888876,22 L9.46862553,22 C9.78121572,22 10.0343474,21.7990491 10.0343474,21.5514081 L10.0343474,12.4248515 L14.2639843,12.4248515 C14.5765745,12.4248515 14.8297062,12.2241295 14.8297062,11.9762596 L14.831438,8.35937289 C14.831438,8.24035871 14.7716908,8.12637974 14.6657623,8.04215432 C14.5598337,7.9579289 14.4155169,7.91055211 14.2654275,7.91055211 L10.0343474,7.91055211 L10.0343474,5.79438844 C10.0343474,4.77727495 10.3400104,4.26093651 12.0109104,4.26093651 L14.4345668,4.26024989 C14.7468683,4.26024989 15,4.05929902 15,3.81165798 L15,0.453169377 C15,0.205757207 14.747157,0.0050352153 14.435144,0.00457746845 Z" id="Shape"></path>
                </g>
            </g>
        </g>
    </g>
</svg>