<?xml version="1.0" encoding="UTF-8"?>
<svg width="22px" height="22px" viewBox="0 0 22 22" version="1.1" xmlns="http://www.w3.org/2000/svg" xmlns:xlink="http://www.w3.org/1999/xlink">
    <!-- Generator: Sketch 46.2 (44496) - http://www.bohemiancoding.com/sketch -->
    <title>phone-receiver copy</title>
    <desc>Created with Sketch.</desc>
    <defs></defs>
    <g id="Page-1" stroke="none" stroke-width="1" fill="none" fill-rule="evenodd">
        <g id="HOME-DESKTOP" transform="translate(-48.000000, -17.000000)" fill-rule="nonzero" fill="black">
            <g id="Group-4">
                <g id="Group-2" transform="translate(48.000000, 17.000000)">
                    <g id="phone-receiver-copy">
                        <path d="M21.9895137,17.1803292 C22.0361315,17.5339665 21.9272933,17.8414444 21.6634556,18.102763 L18.5659037,21.1466814 C18.4261645,21.3004204 18.2437653,21.4312115 18.0186299,21.5387158 C17.7934945,21.6463707 17.5722789,21.7155533 17.3549829,21.7462634 C17.3394563,21.7462634 17.2927625,21.7502199 17.2150915,21.7579068 C17.1375728,21.7655561 17.0366501,21.7694749 16.9124374,21.7694749 C16.6173564,21.7694749 16.1398761,21.7195098 15.4799966,21.6195418 C14.8201171,21.5195738 14.0127732,21.2735537 13.0579649,20.8815947 C12.1029282,20.4895604 11.0199876,19.9014335 9.80895266,19.1174401 C8.59791776,18.3334845 7.30917387,17.2572364 5.94283515,15.8889219 C4.8559748,14.828123 3.95543338,13.8134459 3.24121087,12.8449281 C2.52698835,11.8763349 1.95250503,10.9808055 1.51776089,10.158302 C1.0829787,9.33579857 0.756920596,8.5901646 0.539548528,7.9214001 C0.322176459,7.25263561 0.174673984,6.6761145 0.0970411021,6.19183676 C0.0194082204,5.70755903 -0.0116449323,5.32705509 0.00388164408,5.05032496 C0.0194082204,4.77359482 0.0271715086,4.61985586 0.0271715086,4.58910807 C0.0582246613,4.37387352 0.128094255,4.15479549 0.236780289,3.931874 C0.345466324,3.7089525 0.477442222,3.52830922 0.632707986,3.38994415 L3.73025997,0.322851824 C3.94763203,0.107617275 4.19605726,0 4.47553563,0 C4.67738112,0 4.85593675,0.0576521114 5.01120251,0.172956334 C5.16646828,0.288260557 5.29844418,0.430469098 5.40713021,0.599581958 L7.89914571,5.2809334 C8.0388849,5.52691574 8.07770134,5.79595893 8.01559503,6.08806296 C7.95348873,6.38016699 7.82151283,6.62614933 7.61966734,6.82600999 L6.47846398,7.95599137 C6.44741082,7.98673916 6.42023932,8.03670433 6.39694945,8.10588686 C6.37365959,8.17506939 6.36201465,8.23272151 6.36201465,8.27884319 C6.42412096,8.60169502 6.56386015,8.97066853 6.78123222,9.38576373 C6.96755113,9.75473725 7.25479279,10.2044237 7.6429572,10.7348231 C8.03112161,11.2652226 8.58231507,11.8762973 9.29653758,12.5681226 C9.99523352,13.2753972 10.6162966,13.8249386 11.1597267,14.2170483 C11.7030427,14.608932 12.1573473,14.8973056 12.5222219,15.0817923 C12.8870964,15.2662791 13.1665748,15.3777398 13.3606189,15.4160615 L13.6516661,15.4737513 C13.6827193,15.4737513 13.7332948,15.4621832 13.8030883,15.4391601 C13.8729579,15.4160615 13.9234193,15.3891949 13.9545105,15.3584094 L15.2819947,14.0208804 C15.5616253,13.7749358 15.8875312,13.6519446 16.2602071,13.6519446 C16.524235,13.6519446 16.7337296,13.6980286 16.8889954,13.7903097 L16.9122472,13.7903097 L21.407153,16.419246 C21.7333252,16.6192573 21.9273694,16.8728513 21.9895137,17.1803292 Z" id="Shape"></path>
                    </g>
                </g>
            </g>
        </g>
    </g>
</svg>